<svg xmlns="http://www.w3.org/2000/svg" xmlns:xlink="http://www.w3.org/1999/xlink" width="1007.87" height="755.91"><g transform="translate(0 0)"><path d="M0 0h1007.87v755.9H0z" fill="#fff"/><path d="M40 20h892l28 28v112H40z" stroke="#9e2556" stroke-width="2" fill="#ba2b65"/><path d="M932 20l28 28h-28z" fill="#9e2556"/><use xlink:href="#a" transform="matrix(1,0,0,1,45,25) translate(372.575 68.60000000000001)"/><use xlink:href="#b" transform="matrix(1,0,0,1,45,25) translate(408.525 68.60000000000001)"/><use xlink:href="#c" transform="matrix(1,0,0,1,45,25) translate(439.475 68.60000000000001)"/><use xlink:href="#d" transform="matrix(1,0,0,1,45,25) translate(476.475 68.60000000000001)"/><path d="M320 480h128l32 32v128H320z" stroke="#8bb865" stroke-width="2" fill="#a3d977"/><path d="M448 480l32 32h-32z" fill="#8bb865"/><use xlink:href="#e" transform="matrix(1,0,0,1,325,485) translate(11.599999999999994 67.8)"/><use xlink:href="#f" transform="matrix(1,0,0,1,325,485) translate(79.55 67.8)"/><use xlink:href="#g" transform="matrix(1,0,0,1,325,485) translate(48 89.4)"/><path d="M40 220h896l24 24v96H40z" stroke="#d9be60" stroke-width="2" fill="#ffdf71"/><path d="M936 220l24 24h-24z" fill="#d9be60"/><use xlink:href="#h" transform="matrix(1,0,0,1,45,225) translate(419.125 58.6)"/><use xlink:href="#i" transform="matrix(1,0,0,1,45,225) translate(435.125 58.6)"/><path d="M80 480h128l32 32v128H80z" stroke="#8bb865" stroke-width="2" fill="#a3d977"/><path d="M208 480l32 32h-32z" fill="#8bb865"/><use xlink:href="#j" transform="matrix(1,0,0,1,85,485) translate(2.575000000000003 78.60000000000001)"/><use xlink:href="#k" transform="matrix(1,0,0,1,85,485) translate(29.575000000000003 78.60000000000001)"/><use xlink:href="#g" transform="matrix(1,0,0,1,85,485) translate(93.425 78.60000000000001)"/><path d="M560 480h128l32 32v128H560z" stroke="#8bb865" stroke-width="2" fill="#a3d977"/><path d="M688 480l32 32h-32z" fill="#8bb865"/><use xlink:href="#l" transform="matrix(1,0,0,1,565,485) translate(18.549999999999997 67.8)"/><use xlink:href="#m" transform="matrix(1,0,0,1,565,485) translate(55.55 67.8)"/><use xlink:href="#n" transform="matrix(1,0,0,1,565,485) translate(90.55 67.8)"/><use xlink:href="#k" transform="matrix(1,0,0,1,565,485) translate(16.075000000000003 89.4)"/><use xlink:href="#g" transform="matrix(1,0,0,1,565,485) translate(79.92500000000001 89.4)"/><path d="M760 400h160v240H760z" stroke="#000" stroke-width="2" fill="#fff"/><use xlink:href="#o" transform="matrix(1,0,0,1,765,405) translate(34.05 97)"/><use xlink:href="#p" transform="matrix(1,0,0,1,765,405) translate(50.05 97)"/><use xlink:href="#q" transform="matrix(1,0,0,1,765,405) translate(42.525 118.6)"/><use xlink:href="#r" transform="matrix(1,0,0,1,765,405) translate(79.525 118.6)"/><use xlink:href="#q" transform="matrix(1,0,0,1,765,405) translate(14.724999999999994 140.2)"/><use xlink:href="#s" transform="matrix(1,0,0,1,765,405) translate(51.724999999999994 140.2)"/><path d="M160 480v-69.5h-5V341" stroke="#000" stroke-width="2" fill="none"/><path d="M159.64 355.27h-9.28L155 341z"/><path d="M161 356.27h-12l5.27-16.27h1.46zm-9.26-2h6.52L155 344.24z"/><path d="M400 480v-69.5h-15V341" stroke="#000" stroke-width="2" fill="none"/><path d="M389.64 355.27h-9.28L385 341z"/><path d="M391 356.27h-12l5.27-16.27h1.46zm-9.26-2h6.52L385 344.24z"/><path d="M640 480v-69.5h-25V341" stroke="#000" stroke-width="2" fill="none"/><path d="M619.64 355.27h-9.28L615 341z"/><path d="M621 356.27h-12l5.27-16.27h1.46zm-9.26-2h6.52L615 344.24z"/><path d="M500 220v-29.5H399.37V161" stroke="#000" stroke-width="2" fill="none"/><path d="M404 175.27h-9.26l4.63-14.27z"/><path d="M405.4 176.27h-12.04l5.3-16.27h1.44zm-9.28-2h6.5l-3.25-10.03z"/><path d="M160 360l-14.1 33.82-42.96.73 34.23 21.63-12.44 34.27L160 430l35.27 20.45-12.44-34.27 34.23-21.63-42.95-.73z" stroke="#000" stroke-width="2" fill="#fff"/><use xlink:href="#o" transform="matrix(1,0,0,1,105,365) translate(34.5 48.6)"/><use xlink:href="#t" transform="matrix(1,0,0,1,105,365) translate(50.5 48.6)"/><path d="M400 360l-14.1 33.82-42.96.73 34.23 21.63-12.44 34.27L400 430l35.27 20.45-12.44-34.27 34.23-21.63-42.95-.73z" stroke="#000" stroke-width="2" fill="#fff"/><g><use xlink:href="#o" transform="matrix(1,0,0,1,345,365) translate(34.5 48.6)"/><use xlink:href="#t" transform="matrix(1,0,0,1,345,365) translate(50.5 48.6)"/></g><path d="M640 360l-14.1 33.82-42.96.73 34.23 21.63-12.44 34.27L640 430l35.27 20.45-12.44-34.27 34.23-21.63-42.95-.73z" stroke="#000" stroke-width="2" fill="#fff"/><g><use xlink:href="#o" transform="matrix(1,0,0,1,585,365) translate(34.5 48.6)"/><use xlink:href="#t" transform="matrix(1,0,0,1,585,365) translate(50.5 48.6)"/></g><path d="M127.4 410v20H40v270h800v-60" stroke="#000" stroke-width="2" fill="none"/><path d="M127.4 410h-1v-.63zM844.64 654.27h-9.28L840 640z"/><path d="M846 655.27h-12l4.95-15.27h2.1zm-9.26-2h6.52L840 643.24z"/><path d="M367.4 410v20H280v250h540v-39" stroke="#000" stroke-width="2" fill="none"/><path d="M367.4 410h-1v-.63zM824.64 655.27h-9.28L820 641z"/><path d="M826 656.27h-12l5.27-16.27h1.46zm-9.26-2h6.52L820 644.24z"/><path d="M607.4 410v20H520v230h277v-19" stroke="#000" stroke-width="2" fill="none"/><path d="M607.4 410h-1v-.63zM801.64 655.27h-9.28L797 641z"/><path d="M803 656.27h-12l5.27-16.27h1.46zm-9.26-2h6.52L797 644.24z"/><defs><path d="M127-220V0H93v-220H8v-28h204v28h-85" id="u"/><path d="M106-169C34-169 62-67 57 0H25v-261h32l-1 103c12-21 28-36 61-36 89 0 53 116 60 194h-32v-121c2-32-8-49-39-48" id="v"/><path d="M100-194c63 0 86 42 84 106H49c0 40 14 67 53 68 26 1 43-12 49-29l28 8c-11 28-37 45-77 45C44 4 14-33 15-96c1-61 26-98 85-98zm52 81c6-60-76-77-97-28-3 7-6 17-6 28h103" id="w"/><g id="a"><use transform="matrix(0.05,0,0,0.05,0,0)" xlink:href="#u"/><use transform="matrix(0.05,0,0,0.05,10.950000000000001,0)" xlink:href="#v"/><use transform="matrix(0.05,0,0,0.05,20.950000000000003,0)" xlink:href="#w"/></g><path d="M160-131c35 5 61 23 61 61C221 17 115-2 30 0v-248c76 3 177-17 177 60 0 33-19 50-47 57zm-97-11c50-1 110 9 110-42 0-47-63-36-110-37v79zm0 115c55-2 124 14 124-45 0-56-70-42-124-44v89" id="x"/><path d="M24-231v-30h32v30H24zM24 0v-190h32V0H24" id="y"/><path d="M177-190C167-65 218 103 67 71c-23-6-38-20-44-43l32-5c15 47 100 32 89-28v-30C133-14 115 1 83 1 29 1 15-40 15-95c0-56 16-97 71-98 29-1 48 16 59 35 1-10 0-23 2-32h30zM94-22c36 0 50-32 50-73 0-42-14-75-50-75-39 0-46 34-46 75s6 73 46 73" id="z"/><g id="b"><use transform="matrix(0.05,0,0,0.05,0,0)" xlink:href="#x"/><use transform="matrix(0.05,0,0,0.05,12,0)" xlink:href="#y"/><use transform="matrix(0.05,0,0,0.05,15.949999999999998,0)" xlink:href="#z"/></g><path d="M141-36C126-15 110 5 73 4 37 3 15-17 15-53c-1-64 63-63 125-63 3-35-9-54-41-54-24 1-41 7-42 31l-33-3c5-37 33-52 76-52 45 0 72 20 72 64v82c-1 20 7 32 28 27v20c-31 9-61-2-59-35zM48-53c0 20 12 33 32 33 41-3 63-29 60-74-43 2-92-5-92 41" id="A"/><path d="M85-194c31 0 48 13 60 33l-1-100h32l1 261h-30c-2-10 0-23-3-31C134-8 116 4 85 4 32 4 16-35 15-94c0-66 23-100 70-100zm9 24c-40 0-46 34-46 75 0 40 6 74 45 74 42 0 51-32 51-76 0-42-9-74-50-73" id="B"/><g id="c"><use transform="matrix(0.05,0,0,0.05,0,0)" xlink:href="#x"/><use transform="matrix(0.05,0,0,0.05,12,0)" xlink:href="#A"/><use transform="matrix(0.05,0,0,0.05,22,0)" xlink:href="#B"/></g><path d="M33 0v-248h34V0H33" id="C"/><path d="M117-194c89-4 53 116 60 194h-32v-121c0-31-8-49-39-48C34-167 62-67 57 0H25l-1-190h30c1 10-1 24 2 32 11-22 29-35 61-36" id="D"/><path d="M59-47c-2 24 18 29 38 22v24C64 9 27 4 27-40v-127H5v-23h24l9-43h21v43h35v23H59v120" id="E"/><path d="M114-163C36-179 61-72 57 0H25l-1-190h30c1 12-1 29 2 39 6-27 23-49 58-41v29" id="F"/><g id="d"><use transform="matrix(0.05,0,0,0.05,0,0)" xlink:href="#C"/><use transform="matrix(0.05,0,0,0.05,5,0)" xlink:href="#D"/><use transform="matrix(0.05,0,0,0.05,15,0)" xlink:href="#E"/><use transform="matrix(0.05,0,0,0.05,20,0)" xlink:href="#w"/><use transform="matrix(0.05,0,0,0.05,30,0)" xlink:href="#F"/><use transform="matrix(0.05,0,0,0.05,35.95,0)" xlink:href="#D"/><use transform="matrix(0.05,0,0,0.05,45.95,0)" xlink:href="#w"/><use transform="matrix(0.05,0,0,0.05,55.95,0)" xlink:href="#E"/></g><path d="M205 0l-28-72H64L36 0H1l101-248h38L239 0h-34zm-38-99l-47-123c-12 45-31 82-46 123h93" id="G"/><path d="M100-194c62-1 85 37 85 99 1 63-27 99-86 99S16-35 15-95c0-66 28-99 85-99zM99-20c44 1 53-31 53-75 0-43-8-75-51-75s-53 32-53 75 10 74 51 75" id="H"/><g id="e"><use transform="matrix(0.05,0,0,0.05,0,0)" xlink:href="#G"/><use transform="matrix(0.05,0,0,0.05,12,0)" xlink:href="#D"/><use transform="matrix(0.05,0,0,0.05,22,0)" xlink:href="#H"/><use transform="matrix(0.05,0,0,0.05,32,0)" xlink:href="#E"/><use transform="matrix(0.05,0,0,0.05,37,0)" xlink:href="#v"/><use transform="matrix(0.05,0,0,0.05,47,0)" xlink:href="#w"/><use transform="matrix(0.05,0,0,0.05,57,0)" xlink:href="#F"/></g><path d="M24 0v-261h32V0H24" id="I"/><g id="f"><use transform="matrix(0.05,0,0,0.05,0,0)" xlink:href="#y"/><use transform="matrix(0.05,0,0,0.05,3.95,0)" xlink:href="#D"/><use transform="matrix(0.05,0,0,0.05,13.949999999999998,0)" xlink:href="#E"/><use transform="matrix(0.05,0,0,0.05,18.95,0)" xlink:href="#w"/><use transform="matrix(0.05,0,0,0.05,28.950000000000003,0)" xlink:href="#F"/><use transform="matrix(0.05,0,0,0.05,34.9,0)" xlink:href="#D"/><use transform="matrix(0.05,0,0,0.05,44.9,0)" xlink:href="#A"/><use transform="matrix(0.05,0,0,0.05,54.900000000000006,0)" xlink:href="#I"/></g><path d="M135-143c-3-34-86-38-87 0 15 53 115 12 119 90S17 21 10-45l28-5c4 36 97 45 98 0-10-56-113-15-118-90-4-57 82-63 122-42 12 7 21 19 24 35" id="J"/><path d="M84 4C-5 8 30-112 23-190h32v120c0 31 7 50 39 49 72-2 45-101 50-169h31l1 190h-30c-1-10 1-25-2-33-11 22-28 36-60 37" id="K"/><path d="M115-194c53 0 69 39 70 98 0 66-23 100-70 100C84 3 66-7 56-30L54 0H23l1-261h32v101c10-23 28-34 59-34zm-8 174c40 0 45-34 45-75 0-40-5-75-45-74-42 0-51 32-51 76 0 43 10 73 51 73" id="L"/><g id="g"><use transform="matrix(0.05,0,0,0.05,0,0)" xlink:href="#J"/><use transform="matrix(0.05,0,0,0.05,9,0)" xlink:href="#K"/><use transform="matrix(0.05,0,0,0.05,19,0)" xlink:href="#L"/><use transform="matrix(0.05,0,0,0.05,29,0)" xlink:href="#D"/><use transform="matrix(0.05,0,0,0.05,39,0)" xlink:href="#w"/><use transform="matrix(0.05,0,0,0.05,49,0)" xlink:href="#E"/></g><use transform="matrix(0.05,0,0,0.05,0,0)" xlink:href="#G" id="h"/><path d="M101-234c-31-9-42 10-38 44h38v23H63V0H32v-167H5v-23h27c-7-52 17-82 69-68v24" id="M"/><path d="M206 0h-36l-40-164L89 0H53L-1-190h32L70-26l43-164h34l41 164 42-164h31" id="N"/><g id="i"><use transform="matrix(0.05,0,0,0.05,0,0)" xlink:href="#M"/><use transform="matrix(0.05,0,0,0.05,5,0)" xlink:href="#y"/><use transform="matrix(0.05,0,0,0.05,8.95,0)" xlink:href="#F"/><use transform="matrix(0.05,0,0,0.05,14.899999999999999,0)" xlink:href="#w"/><use transform="matrix(0.05,0,0,0.05,24.9,0)" xlink:href="#N"/><use transform="matrix(0.05,0,0,0.05,37.85,0)" xlink:href="#A"/><use transform="matrix(0.05,0,0,0.05,47.85,0)" xlink:href="#I"/><use transform="matrix(0.05,0,0,0.05,51.800000000000004,0)" xlink:href="#I"/></g><g id="j"><use transform="matrix(0.05,0,0,0.05,0,0)" xlink:href="#G"/><use transform="matrix(0.05,0,0,0.05,12,0)" xlink:href="#D"/></g><g id="k"><use transform="matrix(0.05,0,0,0.05,0,0)" xlink:href="#y"/><use transform="matrix(0.05,0,0,0.05,3.95,0)" xlink:href="#D"/><use transform="matrix(0.05,0,0,0.05,13.949999999999998,0)" xlink:href="#E"/><use transform="matrix(0.05,0,0,0.05,18.95,0)" xlink:href="#w"/><use transform="matrix(0.05,0,0,0.05,28.950000000000003,0)" xlink:href="#F"/><use transform="matrix(0.05,0,0,0.05,34.9,0)" xlink:href="#D"/><use transform="matrix(0.05,0,0,0.05,44.9,0)" xlink:href="#A"/><use transform="matrix(0.05,0,0,0.05,54.900000000000006,0)" xlink:href="#I"/></g><g id="l"><use transform="matrix(0.05,0,0,0.05,0,0)" xlink:href="#G"/><use transform="matrix(0.05,0,0,0.05,12,0)" xlink:href="#D"/><use transform="matrix(0.05,0,0,0.05,22,0)" xlink:href="#B"/></g><g id="m"><use transform="matrix(0.05,0,0,0.05,0,0)" xlink:href="#H"/><use transform="matrix(0.05,0,0,0.05,10,0)" xlink:href="#D"/><use transform="matrix(0.05,0,0,0.05,20,0)" xlink:href="#w"/></g><path d="M210-169c-67 3-38 105-44 169h-31v-121c0-29-5-50-35-48C34-165 62-65 56 0H25l-1-190h30c1 10-1 24 2 32 10-44 99-50 107 0 11-21 27-35 58-36 85-2 47 119 55 194h-31v-121c0-29-5-49-35-48" id="O"/><g id="n"><use transform="matrix(0.05,0,0,0.05,0,0)" xlink:href="#O"/><use transform="matrix(0.05,0,0,0.05,14.950000000000001,0)" xlink:href="#H"/><use transform="matrix(0.05,0,0,0.05,24.950000000000003,0)" xlink:href="#F"/><use transform="matrix(0.05,0,0,0.05,30.900000000000002,0)" xlink:href="#w"/></g><use transform="matrix(0.05,0,0,0.05,0,0)" xlink:href="#G" id="o"/><path d="M185-189c-5-48-123-54-124 2 14 75 158 14 163 119 3 78-121 87-175 55-17-10-28-26-33-46l33-7c5 56 141 63 141-1 0-78-155-14-162-118-5-82 145-84 179-34 5 7 8 16 11 25" id="P"/><path d="M96-169c-40 0-48 33-48 73s9 75 48 75c24 0 41-14 43-38l32 2c-6 37-31 61-74 61-59 0-76-41-82-99-10-93 101-131 147-64 4 7 5 14 7 22l-32 3c-4-21-16-35-41-35" id="Q"/><g id="p"><use transform="matrix(0.05,0,0,0.05,0,0)" xlink:href="#P"/><use transform="matrix(0.05,0,0,0.05,12,0)" xlink:href="#K"/><use transform="matrix(0.05,0,0,0.05,22,0)" xlink:href="#F"/><use transform="matrix(0.05,0,0,0.05,27.950000000000003,0)" xlink:href="#y"/><use transform="matrix(0.05,0,0,0.05,31.899999999999995,0)" xlink:href="#Q"/><use transform="matrix(0.05,0,0,0.05,40.9,0)" xlink:href="#A"/><use transform="matrix(0.05,0,0,0.05,50.9,0)" xlink:href="#E"/><use transform="matrix(0.05,0,0,0.05,55.900000000000006,0)" xlink:href="#A"/></g><g id="q"><use transform="matrix(0.05,0,0,0.05,0,0)" xlink:href="#G"/><use transform="matrix(0.05,0,0,0.05,12,0)" xlink:href="#D"/><use transform="matrix(0.05,0,0,0.05,22,0)" xlink:href="#B"/></g><g id="r"><use transform="matrix(0.05,0,0,0.05,0,0)" xlink:href="#x"/><use transform="matrix(0.05,0,0,0.05,12,0)" xlink:href="#F"/><use transform="matrix(0.05,0,0,0.05,17.95,0)" xlink:href="#H"/></g><path d="M16-82v-28h88v28H16" id="R"/><g id="s"><use transform="matrix(0.05,0,0,0.05,0,0)" xlink:href="#D"/><use transform="matrix(0.05,0,0,0.05,10,0)" xlink:href="#w"/><use transform="matrix(0.05,0,0,0.05,20,0)" xlink:href="#E"/><use transform="matrix(0.05,0,0,0.05,25,0)" xlink:href="#J"/><use transform="matrix(0.05,0,0,0.05,34,0)" xlink:href="#D"/><use transform="matrix(0.05,0,0,0.05,44,0)" xlink:href="#y"/><use transform="matrix(0.05,0,0,0.05,47.95,0)" xlink:href="#M"/><use transform="matrix(0.05,0,0,0.05,52.6,0)" xlink:href="#M"/><use transform="matrix(0.05,0,0,0.05,57.6,0)" xlink:href="#R"/><use transform="matrix(0.05,0,0,0.05,63.550000000000004,0)" xlink:href="#D"/><use transform="matrix(0.05,0,0,0.05,73.55000000000001,0)" xlink:href="#z"/></g><path d="M115-194c55 1 70 41 70 98S169 2 115 4C84 4 66-9 55-30l1 105H24l-1-265h31l2 30c10-21 28-34 59-34zm-8 174c40 0 45-34 45-75s-6-73-45-74c-42 0-51 32-51 76 0 43 10 73 51 73" id="S"/><g id="t"><use transform="matrix(0.05,0,0,0.05,0,0)" xlink:href="#E"/><use transform="matrix(0.05,0,0,0.05,5,0)" xlink:href="#A"/><use transform="matrix(0.05,0,0,0.05,15,0)" xlink:href="#S"/></g></defs></g></svg>